<?xml version="1.0" standalone="no"?>
<!DOCTYPE svg PUBLIC "-//W3C//DTD SVG 20010904//EN"
 "http://www.w3.org/TR/2001/REC-SVG-20010904/DTD/svg10.dtd">
<svg version="1.0" xmlns="http://www.w3.org/2000/svg"
 width="150.000000pt" height="150.000000pt" viewBox="0 0 150.000000 150.000000"
 preserveAspectRatio="xMidYMid meet">
<metadata>
Created by potrace 1.11, written by Peter Selinger 2001-2013
</metadata>
<g transform="translate(0.000000,150.000000) scale(0.100000,-0.100000)"
fill="#000000" stroke="none">
<path d="M924 1393 c0 -10 6 -21 11 -25 7 -5 7 -8 0 -8 -6 0 -9 -70 -7 -194
l2 -194 -47 25 c-27 13 -61 33 -78 43 -16 11 -48 28 -70 39 -40 21 -55 29
-110 66 -16 11 -36 20 -44 22 -9 1 -17 7 -19 12 -13 39 -17 -15 -15 -204 0
-118 -1 -215 -3 -215 -9 0 -89 43 -94 50 -3 4 -25 17 -50 29 -25 11 -63 32
-85 46 -22 14 -54 32 -72 40 -17 8 -38 22 -47 31 -10 9 -20 13 -23 10 -6 -6
-11 -446 -5 -446 1 0 20 11 42 25 22 14 44 25 49 25 5 0 16 6 23 13 7 7 24 18
38 25 14 6 34 18 45 24 11 7 31 20 45 29 14 9 51 30 82 48 l58 32 -3 -220 c-1
-122 -1 -221 1 -221 6 0 57 35 63 43 3 5 8 7 10 6 4 -3 94 47 227 127 40 24
75 44 77 44 4 0 8 -269 5 -385 -1 -56 0 -58 17 -45 10 8 29 21 43 29 14 8 90
52 168 98 79 46 149 83 155 83 15 0 -22 33 -58 52 -50 25 -148 80 -195 109
-25 16 -60 36 -77 45 -49 24 -47 27 54 78 13 6 23 14 23 19 0 4 4 7 9 7 6 0
60 29 121 65 61 36 116 63 121 60 5 -4 6 1 3 9 -3 9 -10 14 -14 11 -5 -3 -10
-1 -12 3 -1 5 -50 35 -108 68 -57 32 -114 64 -125 71 -11 7 -39 22 -63 34 -23
12 -44 25 -47 29 -4 7 23 26 116 80 194 111 249 145 249 151 0 4 -9 11 -20 14
-11 3 -20 11 -20 16 0 5 -8 9 -17 9 -9 0 -24 6 -32 14 -9 7 -41 26 -71 42 -30
16 -57 31 -60 34 -9 9 -152 90 -160 90 -4 0 -7 -8 -6 -17z"/>
</g>
</svg>
